<svg xmlns="http://www.w3.org/2000/svg" version="1.0" viewBox="0 0 900 900"><defs xmlns="http://www.w3.org/2000/svg"><filter id="box-shadow" color-interpolation-filters="sRGB"><feFlood flood-opacity=".498" result="flood"/><feComposite in="flood" in2="SourceGraphic" operator="in" result="composite1"/><feGaussianBlur in="composite1" result="blur" stdDeviation="30"/><feOffset dx="-6" dy="6" result="offset"/><feComposite in="SourceGraphic" in2="offset" result="composite2"/></filter></defs><path d="M0 0h900v900H0z" fill="#464c4f"/><path d="M0 90V60h300v60H0z" fill="#452745"/><path d="M0 60v4h296v56h4V60h-60z" fill="#401a40"/><path d="M240 540h60v60h-60zm56 4h-52v52h52zm-56-364h60v60h-60zm56 4h-52v52h52z" fill="#230d23"/><path d="M120 748.5V717h237V477h60V123h-60v-3h3V60H60V0h423v237h60v186h-60v60h-60v297H120zm717-30V657h63v123h-63z" fill="#464c4f"/><path d="M717 270v-33h66v66h-66zm120-90v-63h63v126h-63z" fill="#452745"/><path d="M837 0v123h3v-3h60V0zM0 120v540h120V483h123v-60h60v-66H120V120zm777 117v3h3v60h-3v3h66v-63h-3v-3zm-180 60v126h66V297zm180 300v120h-60v63h123V660h3v-63zM420 720v60h60v-60z" fill="#91aa72"/><path d="M300 60v60h57v363h3v-3h60V120h-60V60h-60zm120 420v3h3v-3h-3zm60-240v60h60v-60h-60zM60 660v120h60v-60h60v-60H60zm0 120H0v60h60v-60zm180 0v60h-60v60h120V780h-60z" fill="#343642"/><path d="M537 421.5V420h3V297h63v3h-3v120h3v3h-66z" fill="#565e47"/><path d="M840 630v-30h-60v3h-3V417h66v120h57v123h-60zM237 481.5V480h3v-60h60v-60h-3v-3h63v126H237zm420-60V420h3V300h-3v-3h63v3h63v63h-60v60h-66z" fill="#677453"/><path d="M480 750v-30h-60V480h60v240h240v-60h60v60h-60v60H480zm-300-60v-30h-60V480h60v180h180v60H180zm0-360v-30h-60V120h60v180h180v60H180zm360-60v-30h-60V0h60v240h60v60h-60zm120 0v-30h60v60h-60z" fill="#565e47"/><path d="M477 481.5V480h3v-60h60v60h3-3v3-3h-60v3h-3zm240 0V480h3v-60h60v60h-60v3h-3z" fill="#2f3026"/><path d="M484 600V484h56v-4l4-.2V424h172v56h4v4h56v172h-55.8l-1 4H716v56H484zm233-30v-87H543v174h174z" fill="#401a40" filter="url(#box-shadow)"/><g xmlns="http://www.w3.org/2000/svg" fill="#5a325b"><path d="M480 721.5V720h-3V480h3v-3h57v-57h183v-3h3v60h57v186h-57v57h-3v3H480zM713 685v-28h4v-4h56V487h-56v-4h-4v-56H547v56h-4v4h-56v226h226z"/><path d="M720 661.5V660H597v-57h-57v-66h57v-57h66v57h57v123h3v3h-3z"/><path d="M597 570v-33h66v66h-66zm56 0v-23h-46v46h46zm-56-357v-30h-60V0h10v173h56v5h4v55h226V0h7v240h3v3h-3v-3H720v3H597z"/></g><path d="M840 480v-60h-60v3h-60v-63h60v-60h60v-3h3v120h57v123h-60z" fill="#565e47"/><path d="M120 328.5V297h63v63h-63z" fill="#313130"/><path d="M540 630v-30h60v60h-60zm124 0v-26h52v52h-52zM540 510v-30h60v60h-60zm120 0v-30h60v60h-60zm-60-360v-30h60v60h-60zm0-120V0h60v60h-60zm120 0V0h60v60h-60z" fill="#230d23"/><path d="M597 271.5V243h-57v-3h-3v-63h3v3h60v-3h3v3h-3v63h63v57h-66z" fill="#2f3026"/><g xmlns="http://www.w3.org/2000/svg" fill="#401a40"><path d="M604 208.5V181h-4v3h-3v-4h3v-4h-56V0h59v177h174V0h59v236H604z" filter="url(#box-shadow)"/><path d="M840 330v-90h60v180h-60zM604 570v-26h52v52h-52zm53-480V57h66v66h-66z"/></g><path d="M657 151.5V123h-57V57h57V0h66v57h57v123H657zM773 120V67h-53v-7h-8V7h-45v53h-7v7h-53v46h53v7h7v53h106z" fill="#5a325b"/><path d="M180 661.5V660h-3v-63h3v3h7v53h53v7h3v3h-63zm117 0V660h3v-7h53v-53h7v63h-63zm-120-150V480h183v60h-7v-53H187v53h-7v3h-3zm3-210V300h-2v-63h2v3h7v53h53v7h3v3h-63zm117 0V300h3v-7h53v-53h7v63h-63zm-119-150V120h62v7h-53v53h-7v3h-2zm175 2V127h-53v-7h60v60h-7z" fill="#382038"/><path d="M664 148v-28h56V64h56v112H664zm-60-58V64h56v52h-56zm60-58V4h51v56h-51zM660 570v-30h-60v60h60z" fill="#5a325b"/><path d="M713 630v-23h-46v46h46z" fill="#401a40"/><path d="M360 780h480v60H360z" fill="#91aa72"/><path d="M840 660h60v180h-60z" fill="#452745"/><path d="M840 690v-30h60v60h-60z" fill="#382038"/><path d="M780 720v60h60v-60h-60zm0 60h-60v60H480v-60h-60v120h360V780z" fill="#677453"/><path d="M780 780v120h120v-60h-60v-60h-60zm-420 0v120h60V780h-60z" fill="#565e47"/><path d="M300 780v120h60V780h-60z" fill="#452745"/><path d="M360 780v4h-56v56h-4v-60h4z" fill="#401a40"/><path d="M0 120v60h120v-60H0z" fill="#677453"/><path d="M304 896v-56h-4v60h4z" fill="#401a40"/><path d="M60 600h60v60H60z" fill="#424242"/><path d="M0 300v180h120V298.57H0z" fill="#565e47"/><path d="M0 181.43v180h60V180H0zM0 420h60v60H0z" fill="#565e47"/><path d="M0 360v60h60v60H0v300h60v-60h60v-60H60v-60h60V360H0z" fill="#677453"/><path d="M716 604l-52 52v-52zm4-604l60 60h-60z" fill="#230d23"/><path d="M0 0h60v60H0z" fill="#343642"/><path d="M237 658v-5h66v10h-66zm-60-88v-33h10v66h-10zm176 0v-33h7v66h-7zM237 298v-5h66v10h-66zm-59-88v-33h9v66h-9zm175 0v-33h7v66h-7zm-116-86.5V120h66v7h-66z" fill="#382038"/><path d="M184 628v-28h56v56h-56zm116 0v-28h56v56h-56zM184 512v-28h172v56H184zm0-212v3c-.101-.995-1-3 0-3zm0-32v-28h56v56h-56zm116 0v-28h56v56h-56zM184 152v-28h56v56h-56zm116 0v-28h56v56h-56z" fill="#401a40" filter="url(#box-shadow)"/><path d="M244 570v-26h52v52h-52zm0-360v-26h52v52h-52z" fill="#5a325b"/><path d="M240 124v56h60v-56h-60zm60 56v60h56v-60h-56zm0 60h-60v56h60v-56zm-60 0v-60h-56v60h56zm-56 300v60h56v-60h-56zm56 60v56h60v-56h-60zm60 0h56v-60h-56v60z" fill="#230d23"/></svg>
