<svg version="1.0" viewBox="0 0 900 900" xmlns="http://www.w3.org/2000/svg">
 <g fill="#272727">
  <path d="M301 840.5 l0 -59.5 61 0 61 0 0 59.5 0 59.5 -61 0 -61 0 0 -59.5z"/>
  <path d="M777 838.5 l0 -61.5 30 0 30 0 0 -60 0 -60 31.5 0 31.5 0 0 121.5 0 121.5 -61.5 0 -61.5 0 0 -61.5z"/>
  <path d="M837 483 l0 -60 -27 0 -27 0 0 1.5 0 1.5 -33 0 -33 0 0 -34.5 0 -34.5 30 0 30 0 0 -30 0 -30 30 0 30 0 0 -30 0 -30 31.5 0 31.5 0 0 153 0 153 -31.5 0 -31.5 0 0 -60z"/>
  <path d="M474 481.5 l0 -4.5 1.5 0 1.5 0 0 -30 0 -30 31.5 0 31.5 0 0 1.5 0 1.5 1.5 0 1.5 0 0 31.5 0 31.5 -30 0 -30 0 0 1.5 0 1.5 -4.5 0 -4.5 0 0 -4.5z"/>
  <path d="M0 450 l0 -33 31.5 0 31.5 0 0 33 0 33 -31.5 0 -31.5 0 0 -33z"/>
  <path d="M0 92 l0 -31 149.5 0 149.5 0 0 31 0 31 -149.5 0 -149.5 0 0 -31z"/>
 </g>
 <g fill="#343434">
  <path d="M297 838.5 l0 -61.5 93 0 93 0 0 30 0 30 117 0 117 0 0 -30 0 -30 30 0 30 0 0 -30 0 -30 31.5 0 31.5 0 0 31.5 0 31.5 -30 0 -30 0 0 60 0 60 -180 0 -180 0 0 -58 0 -58 -58 0 -58 0 0 58 0 58 -3.5 0 -3.5 0 0 -61.5z"/>
  <path d="M0 631.5 l0 -151.5 30 0 30 0 0 -30 0 -30 -30 0 -30 0 0 -62 0 -62 61.5 0 61.5 0 0 213.5 0 213.5 -30 0 -30 0 0 30 0 30 -31.5 0 -31.5 0 0 -151.5z"/>
  <path d="M837 633 l0 -30 -27 0 -27 0 0 1.5 0 1.5 -4.5 0 -4.5 0 0 -91.5 0 -91.5 3 0 3 0 0 -1.5 0 -1.5 30 0 30 0 0 60 0 60 30 0 30 0 0 60 0 60 -30 0 -30 0 0 1.5 0 1.5 -1.5 0 -1.5 0 0 -30z"/>
  <path d="M237 450 l0 -33 30 0 30 0 0 -31.5 0 -31.5 31.5 0 31.5 0 0 64.5 0 64.5 -61.5 0 -61.5 0 0 -33z"/>
  <path d="M540 424.5 l0 -1.5 -1.5 0 -1.5 0 0 -1.5 0 -1.5 -1.5 0 -1.5 0 0 -1.5 0 -1.5 1.5 0 1.5 0 0 -61.5 0 -61.5 28.5 0 28.5 0 0 -24 0 -24 -28.5 0 -28.5 0 0 -1.5 0 -1.5 -1.5 0 -1.5 0 0 -31.5 0 -31.5 32.3 0 32.2 0 2.3 0.6 2.2 0.6 0 27.9 0 27.9 31.5 0 31.5 0 0 28.5 0 28.5 25.5 0 25.5 0 0 -28.5 0 -28.5 33 0 33 0 0 31.5 0 31.5 -1.5 0 -1.5 0 0 30 0 30 -30 0 -30 0 0 31.5 0 31.5 1.5 0 1.5 0 0 1.5 0 1.5 -34.5 0 -34.5 0 0 -4.5 0 -4.5 1.5 0 1.5 0 0 -57 0 -57 -27 0 -27 0 0 57 0 57 1.5 0 1.5 0 0 4.5 0 4.5 -33 0 -33 0 0 -1.5z"/>
  <path d="M837 180 l0 -63 31.5 0 31.5 0 0 61.5 0 61.5 -30 0 -30 0 0 1.5 0 1.5 -1.5 0 -1.5 0 0 -63z"/>
  <path d="M0 151.5 l0 -31.5 61.5 0 61.5 0 0 31.5 0 31.5 -61.5 0 -61.5 0 0 -31.5z"/>
  <path d="M293 121.5 l0 -1.5 1.5 0 1.5 0 0 -28 0 -28 -148 0 -148 0 0 -3.5 0 -3.5 151.5 0 151.5 0 0 33 0 33 -5 0 -5 0 0 -1.5z"/>
 </g>
 <g fill="#444444">
  <path d="M480 810 l0 -30 -31.5 0 -31.5 0 0 -150 0 -150 1.5 0 1.5 0 0 -1.5 0 -1.5 30 0 30 0 0 1.5 0 1.5 1.5 0 1.5 0 0 118.5 0 118.5 117 0 117 0 0 -30 0 -30 28.5 0 28.5 0 0 -28.5 0 -28.5 1.5 0 1.5 0 0 1.5 0 1.5 1.5 0 1.5 0 0 -1.5 0 -1.5 30 0 30 0 0 60 0 60 -30 0 -30 0 0 30 0 30 -30 0 -30 0 0 30 0 30 -120 0 -120 0 0 -30z m0 -328.5 l0 -1.5 -1.5 0 -1.5 0 0 1.5 0 1.5 1.5 0 1.5 0 0 -1.5z"/>
  <path d="M177 693 l0 -30 -28.5 0 -28.5 0 0 -182 0 -182 -60 0 -60 0 0 -59.5 0 -59.5 60 0 60 0 0 -30 0 -30 61.5 0 61.5 0 0 5 0 5 -26.5 0 -26.5 0 0 26.5 0 26.5 -4.5 0 -4.5 0 0 27 0 27 4.5 0 4.5 0 0 26.5 0 26.5 26.5 0 26.5 0 0 5 0 5 27 0 27 0 0 -5 0 -5 26.5 0 26.5 0 0 -26.5 0 -26.5 6.5 0 6.5 0 0 34.5 0 34.5 -1.5 0 -1.5 0 0 27 0 27 -1.5 0 -1.5 0 0 -1.5 0 -1.5 -28.5 0 -28.5 0 0 31.5 0 31.5 -30 0 -30 0 0 30 0 30 58.5 0 58.5 0 0 -1.5 0 -1.5 3 0 3 0 0 33 0 33 -6.5 0 -6.5 0 0 -26.5 0 -26.5 -80 0 -80 0 0 26.5 0 26.5 -5 0 -5 0 0 27 0 27 5 0 5 0 0 26.5 0 26.5 26.5 0 26.5 0 0 3.5 0 3.5 1.5 0 1.5 0 0 1.5 0 1.5 24 0 24 0 0 -1.5 0 -1.5 1.5 0 1.5 0 0 -3.5 0 -3.5 26.5 0 26.5 0 0 -26.5 0 -26.5 6.5 0 6.5 0 0 63 0 63 -93 0 -93 0 0 -30z"/>
  <path d="M600 424.5 l0 -1.5 1.5 0 1.5 0 0 -1.5 0 -1.5 -1.5 0 -1.5 0 0 -60 0 -60 30 0 30 0 0 60 0 60 -1.5 0 -1.5 0 0 1.5 0 1.5 1.5 0 1.5 0 0 1.5 0 1.5 -30 0 -30 0 0 -1.5z"/>
  <path d="M537 271.5 l0 -28.5 -30 0 -30 0 0 -121.5 0 -121.5 31.5 0 31.5 0 0 91.5 0 91.5 -1.5 0 -1.5 0 0 28.5 0 28.5 1.5 0 1.5 0 0 1.5 0 1.5 28.5 0 28.5 0 0 27 0 27 -28.5 0 -28.5 0 0 1.5 0 1.5 -1.5 0 -1.5 0 0 -28.5z"/>
  <path d="M780 270 l0 -30 -1.5 0 -1.5 0 0 -1.5 0 -1.5 31.5 0 31.5 0 0 31.5 0 31.5 -30 0 -30 0 0 -30z"/>
  <path d="M663 268.5 l0 -28.5 -1.5 0 -1.5 0 0 -1.5 0 -1.5 31.5 0 31.5 0 0 1.5 0 1.5 -1.5 0 -1.5 0 0 28.5 0 28.5 -28.5 0 -28.5 0 0 -28.5z"/>
  <path d="M350 156.5 l0 -26.5 -26.5 0 -26.5 0 0 -5 0 -5 1.5 0 1.5 0 0 -1.5 0 -1.5 31.5 0 31.5 0 0 33 0 33 -6.5 0 -6.5 0 0 -26.5z"/>
  <path d="M837 61.5 l0 -61.5 31.5 0 31.5 0 0 60 0 60 -30 0 -30 0 0 1.5 0 1.5 -1.5 0 -1.5 0 0 -61.5z"/>
 </g>
 <g fill="#4c4c4c">
  <path d="M240 654.5 l0 -1.5 -26.5 0 -26.5 0 0 -26.5 0 -26.5 -1.5 0 -1.5 0 0 -1.5 0 -1.5 29.5 0 29.5 0 0 29.5 0 29.5 -1.5 0 -1.5 0 0 -1.5z"/>
  <path d="M297 626.5 l0 -29.5 29.5 0 29.5 0 0 1.5 0 1.5 -1.5 0 -1.5 0 0 26.5 0 26.5 -26.5 0 -26.5 0 0 1.5 0 1.5 -1.5 0 -1.5 0 0 -29.5z"/>
  <path d="M184 541.5 l0 -1.5 1.5 0 1.5 0 0 -26.5 0 -26.5 83 0 83 0 0 26.5 0 26.5 1.5 0 1.5 0 0 1.5 0 1.5 -86 0 -86 0 0 -1.5z"/>
  <path d="M240 294.5 l0 -1.5 -26.5 0 -26.5 0 0 -26.5 0 -26.5 -1.5 0 -1.5 0 0 -1.5 0 -1.5 29.5 0 29.5 0 0 29.5 0 29.5 -1.5 0 -1.5 0 0 -1.5z"/>
  <path d="M297 266.5 l0 -29.5 29.5 0 29.5 0 0 1.5 0 1.5 -1.5 0 -1.5 0 0 26.5 0 26.5 -26.5 0 -26.5 0 0 1.5 0 1.5 -1.5 0 -1.5 0 0 -29.5z"/>
  <path d="M184 181.5 l0 -1.5 1.5 0 1.5 0 0 -26.5 0 -26.5 26.5 0 26.5 0 0 -1.5 0 -1.5 1.5 0 1.5 0 0 29.5 0 29.5 -29.5 0 -29.5 0 0 -1.5z"/>
  <path d="M297 153.5 l0 -29.5 1.5 0 1.5 0 0 1.5 0 1.5 26.5 0 26.5 0 0 26.5 0 26.5 1.5 0 1.5 0 0 1.5 0 1.5 -29.5 0 -29.5 0 0 -29.5z"/>
 </g>
 <g fill="#994114">
  <path d="M177 868.5 l0 -31.5 30 0 30 0 0 -30 0 -30 33 0 33 0 0 1.5 0 1.5 -1.5 0 -1.5 0 0 60 0 60 -61.5 0 -61.5 0 0 -31.5z"/>
  <path d="M0 811.5 l0 -31.5 30 0 30 0 0 -30 0 -30 30 0 30 0 0 -30 0 -30 30 0 30 0 0 30 0 30 1.5 0 1.5 0 0 1.5 0 1.5 -30 0 -30 0 0 30 0 30 -30 0 -30 0 0 30 0 30 -31.5 0 -31.5 0 0 -31.5z"/>
  <path d="M417 484.5 l0 -1.5 -28.5 0 -28.5 0 0 -1.5 0 -1.5 -1.5 0 -1.5 0 0 -88.5 0 -88.5 1.5 0 1.5 0 0 -31.5 0 -31.5 -1.5 0 -1.5 0 0 -30 0 -30 1.5 0 1.5 0 0 -30 0 -30 -30 0 -30 0 0 1.5 0 1.5 -1.5 0 -1.5 0 0 -1.5 0 -1.5 1.5 0 1.5 0 0 -30 0 -30 -1.5 0 -1.5 0 0 -1.5 0 -1.5 33 0 33 0 0 30 0 30 30 0 30 0 0 180 0 180 1.5 0 1.5 0 0 1.5 0 1.5 -1.5 0 -1.5 0 0 1.5 0 1.5 -1.5 0 -1.5 0 0 1.5 0 1.5 -1.5 0 -1.5 0 0 -1.5z"/>
  <path d="M477 270 l0 -33 1.5 0 1.5 0 0 1.5 0 1.5 30 0 30 0 0 31.5 0 31.5 -31.5 0 -31.5 0 0 -33z"/>
  <path d="M0 30 l0 -30 31.5 0 31.5 0 0 30 0 30 -31.5 0 -31.5 0 0 -30z"/>
 </g>
 <g fill="#bd3900">
  <path d="M240 601.5 l0 -1.5 -1.5 0 -1.5 0 0 -30 0 -30 33 0 33 0 0 30 0 30 -1.5 0 -1.5 0 0 1.5 0 1.5 -30 0 -30 0 0 -1.5z m53 -31.5 l0 -23 -23 0 -23 0 0 23 0 23 23 0 23 0 0 -23z"/>
  <path d="M240 241.5 l0 -1.5 -1.5 0 -1.5 0 0 -30 0 -30 1.5 0 1.5 0 0 -1.5 0 -1.5 30 0 30 0 0 1.5 0 1.5 1.5 0 1.5 0 0 30 0 30 -1.5 0 -1.5 0 0 1.5 0 1.5 -30 0 -30 0 0 -1.5z m53 -31.5 l0 -23 -23 0 -23 0 0 23 0 23 23 0 23 0 0 -23z"/>
 </g>
 <g fill="#585858">
  <path d="M485 600 l0 -115 30 0 30 0 0 -28.5 0 -28.5 85 0 85 0 0 28.5 0 28.5 28.5 0 28.5 0 0 85 0 85 -28.5 0 -28.5 0 0 30 0 30 -115 0 -115 0 0 -115z m229 -30 l0 -84 -84 0 -84 0 0 84 0 84 84 0 84 0 0 -84z"/>
  <path d="M603.8 208.3 c0 -15.3 -0.3 -26.3 -0.5 -24.5 l-0.4 3.2 -1.5 0 -1.4 0 0 -1.4 0 -1.4 -3 -0.7 -3 -0.7 0 -1.4 0 -1.4 3 0 3 0 0 -2 0 -2 -28 0 -28 0 0 -88 0 -88 31 0 31 0 0 87 0 87 84 0 84 0 0 -87 0 -87 31 0 31 0 0 118 0 118 -116 0 -116 0 -0.2 -27.7z"/>
 </g>
 <g fill="#ae511f">
  <path d="M0 870 l0 -30 30 0 30 0 0 -30 0 -30 30 0 30 0 0 -30 0 -30 120 0 120 0 0 -60 0 -60 -1.5 0 -1.5 0 0 -30 0 -30 1.5 0 1.5 0 0 -30 0 -30 30 0 30 0 0 -180 0 -180 -30 0 -30 0 0 -30 0 -30 -150 0 -150 0 0 -30 0 -30 210 0 210 0 0 150 0 150 30 0 30 0 0 60 0 60 -30 0 -30 0 0 30 0 30 1.5 0 1.5 0 0 1.5 0 1.5 -1.5 0 -1.5 0 0 -1.5 0 -1.5 -30 0 -30 0 0 150 0 150 -90 0 -90 0 0 30 0 30 -30 0 -30 0 0 30 0 30 -90 0 -90 0 0 -30z"/>
 </g>
 <g fill="#646464">
  <path d="M480 600 l0 -120 30 0 30 0 0 -28.5 0 -28.5 91.5 0 91.5 0 0 27 0 27 27 0 27 0 0 91.5 0 91.5 -28.5 0 -28.5 0 0 30 0 30 -120 0 -120 0 0 -120z m232 84.5 l0 -27.5 -1.5 0 -1.5 0 0 -1.5 0 -1.5 2.5 0 2.5 0 0 -2.5 0 -2.5 1.5 0 1.5 0 0 1.5 0 1.5 26 0 26 0 0 -82 0 -82 -26 0 -26 0 0 1.5 0 1.5 -1.5 0 -1.5 0 0 -2.5 0 -2.5 -2.5 0 -2.5 0 0 -1.5 0 -1.5 1.5 0 1.5 0 0 -26 0 -26 -82 0 -82 0 0 26 0 26 1.5 0 1.5 0 0 1.5 0 1.5 -2.5 0 -2.5 0 0 2.5 0 2.5 -1.5 0 -1.5 0 0 -1.5 0 -1.5 -27.5 0 -27.5 0 0 112 0 112 112 0 112 0 0 -27.5z"/>
  <path d="M243 661.5 l0 -1.5 -1.5 0 -1.5 0 0 -30 0 -30 -31.5 0 -31.5 0 0 -30 0 -30 31.5 0 31.5 0 0 30 0 30 30 0 30 0 0 -30 0 -30 30 0 30 0 0 30 0 30 -30 0 -30 0 0 30 0 30 -1.5 0 -1.5 0 0 1.5 0 1.5 -27 0 -27 0 0 -1.5z"/>
  <path d="M240 271.5 l0 -31.5 -31 0 -31 0 0 -30 0 -30 31 0 31 0 0 -30 0 -30 30 0 30 0 0 30 0 30 30 0 30 0 0 30 0 30 -30 0 -30 0 0 31.5 0 31.5 -30 0 -30 0 0 -31.5z m60 -61.5 l0 -30 -30 0 -30 0 0 30 0 30 30 0 30 0 0 -30z"/>
  <path d="M600 211.5 l0 -28.5 -31.5 0 -31.5 0 0 -91.5 0 -91.5 5 0 5 0 0 86.5 0 86.5 28 0 28 0 0 -1.5 0 -1.5 1.5 0 1.5 0 0 2.5 0 2.5 2 0 2 0 0 1 0 1 -3.7 0.1 -3.8 0.2 2.3 0.4 2.2 0.4 0 27.5 0 27.4 113 0 113 0 0 -116.5 0 -116.5 3.5 0 3.5 0 0 120 0 120 -120 0 -120 0 0 -28.5z"/>
 </g>
 <g fill="#737373">
  <path d="M654 151.5 l0 -25.5 -25.5 0 -25.5 0 0 -36 0 -36 25.5 0 25.5 0 0 -27 0 -27 36 0 36 0 0 27 0 27 25.5 0 25.5 0 0 61.5 0 61.5 -61.5 0 -61.5 0 0 -25.5z m113 -34.5 l0 -50 -25 0 -25 0 0 -2 0 -2 -2.5 0 -2.5 0 0 -28 0 -28 -22.5 0 -22.5 0 0 28 0 28 -2 0 -2 0 0 2 0 2 -25 0 -25 0 0 23 0 23 25 0 25 0 0 2 0 2 2 0 2 0 0 25 0 25 50 0 50 0 0 -50z"/>
 </g>
 <g fill="#ff701f">
  <path d="M597 630 l0 -27 -27 0 -27 0 0 -33 0 -33 27 0 27 0 0 -27 0 -27 33 0 33 0 0 27 0 27 27 0 27 0 0 33 0 33 -27 0 -27 0 0 27 0 27 -33 0 -33 0 0 -27z"/>
  <path d="M244 570 l0 -26 26 0 26 0 0 26 0 26 -26 0 -26 0 0 -26z"/>
  <path d="M244 210 l0 -26 26 0 26 0 0 26 0 26 -26 0 -26 0 0 -26z"/>
  <path d="M664 121.5 l0 -1.5 -2 0 -2 0 0 -2 0 -2 -1.5 0 -1.5 0 0 -26 0 -26 1.5 0 1.5 0 0 -2 0 -2 2 0 2 0 0 -1.5 0 -1.5 25.5 0 25.5 0 0 1.5 0 1.5 2.5 0 2.5 0 0 2 0 2 1.5 0 1.5 0 0 29.5 0 29.5 -29.5 0 -29.5 0 0 -1.5z"/>
 </g>
 <g fill="#878787">
  <path d="M543 628.5 l0 -28.5 28.5 0 28.5 0 0 28.5 0 28.5 -28.5 0 -28.5 0 0 -28.5z"/>
  <path d="M660 628.5 l0 -28.5 28.5 0 28.5 0 0 28.5 0 28.5 -28.5 0 -28.5 0 0 -28.5z"/>
  <path d="M543 511.5 l0 -28.5 28.5 0 28.5 0 0 28.5 0 28.5 -28.5 0 -28.5 0 0 -28.5z"/>
  <path d="M660 511.5 l0 -28.5 28.5 0 28.5 0 0 28.5 0 28.5 -28.5 0 -28.5 0 0 -28.5z"/>
  <path d="M720 451.5 l0 -28.5 28.5 0 28.5 0 0 28.5 0 28.5 -28.5 0 -28.5 0 0 -28.5z"/>
  <path d="M603 150 l0 -27 27 0 27 0 0 27 0 27 -27 0 -27 0 0 -27z"/>
  <path d="M664 145 l0 -25 28 0 28 0 0 -28 0 -28 25 0 25 0 0 53 0 53 -53 0 -53 0 0 -25z"/>
  <path d="M610 90 l0 -26 25 0 25 0 0 26 0 26 -25 0 -25 0 0 -26z"/>
  <path d="M664 32 l0 -28 25.5 0 25.5 0 0 28 0 28 -25.5 0 -25.5 0 0 -28z"/>
  <path d="M603 28.5 l0 -28.5 27 0 27 0 0 28.5 0 28.5 -27 0 -27 0 0 -28.5z"/>
  <path d="M723 28.5 l0 -28.5 27 0 27 0 0 28.5 0 28.5 -27 0 -27 0 0 -28.5z"/>
 </g>
</svg>