<svg version="1.0" viewBox="0 0 900 900" xmlns="http://www.w3.org/2000/svg"><defs><filter id="stroke-path" color-interpolation-filters="sRGB"><feFlood flood-color="#000" flood-opacity=".498" result="flood"/><feComposite in="flood" in2="SourceGraphic" operator="in" result="composite1"/><feGaussianBlur in="composite1" result="blur" stdDeviation="30"/><feOffset dx="-6" dy="6" result="offset"/><feComposite in="SourceGraphic" in2="offset" result="composite2"/></filter></defs><path d="M0 0h900v900H0z" fill="#2e6c8d"/><path d="M0 90V60h300v60H0z" fill="#0d3112"/><path d="M0 60v4h296v56h4V60h-60z" fill="#fff" fill-opacity=".039"/><path d="M237 570v-33h66v66h-66zm56 0v-23h-46v46h46zm-56-360v-33h66v66h-66zm56 0v-23h-46v46h46z" fill="#358b40"/><path d="M120 748.5V717h237V477h60V123h-60v-3h3V60H60V0h423v237h60v186h-60v60h-60v297H120zm717-30V657h63v123h-63z" fill="#2e6c8d"/><path d="M717 270v-33h66v66h-66zm120-90v-63h63v126h-63z" fill="#004324"/><path d="M244 210v-26h52v52h-52z" fill="#51d14d"/><path d="M480 0v240h60V0h-60zm60 240v60h57v123h66V300h57v-60h-60v57h-60v-57h-60zM837 0v123h3v-3h60V0h-63zM0 120v540h180V483h63v-60h60v-63h57v-60H183v-3h-3V120H0zm180 540v60h180v-60H180zm597-423v3h3v60h-3v3h66v-63h-3v-3h-63zM420 480v300h-60v60h480V660h3v-63h-66v63h-57v57h-3v3H480V480h-60z" fill="#00592f"/><path d="M780 720v60h60v-60h-60zm0 60h-60v60H480v-60h-60v120h360V780zM597 271.5V243h-57v-3h-3v-63h3v3h60v-3h3v3h-3v60h63v60h-66z" fill="#004324"/><path d="M717 481.5V480h3v-60h60v60h-60v3h-3z" fill="#3aa63a"/><path d="M477 481.5V480h3v-60h60v60h3v3h-3v-3h-60v3h-3z" fill="#0d3112"/><path d="M660 570v-30h-60v60h60zM713 630v-23h-46v46h46z" fill="#798b35"/><path d="M840 690v-30h60v60h-60z" fill="#0d3112"/><path d="M720 660H597v-57h-57v-66h57v-57h66v57h57z" fill="#51d14d"/><path d="M540 630v-30h60v60h-60zm124 0v-26h52v52h-52zM540 510v-30h60v60h-60zm120 0v-30h60v60h-60zm-60-360v-30h60v60h-60zm0-120V0h60v60h-60zm120 0V0h60v60h-60z" fill="#3aa63a"/><g fill="#266c26" filter="url(#stroke-path)"><path d="M544 423v56.801l-4 1v3.2h-56v232h232v-56h3.2l1-4H776V484h-56v-3.2l-4-1V423z"/><path d="M604 544v52h52v-52z"/></g><path d="M840 630v-30h-60v3h-3V417h66v120h57v123h-60zM237 481.5V480h3v-60h60v-63h60v126H237zm420-60V420h3V300h-3v-3h63v3h63v63h-60v60h-66z" fill="#004324"/><path d="M300 60v60h57v363h3v-3h60V120h-60V60h-60zm120 420v3h3v-3h-3zm60-240v60h60v-60h-60zM60 660v120h60v-60h60v-60H60zm0 120H0v60h60v-60zm180 0v60h-60v60h120V780h-60z" fill="#205b79"/><path d="M537 421.5V420h3V297h63v3h-3v120h3v3h-66z" fill="#004324"/><path d="M237 658v-5h66v10h-66zm-60-88v-33h10v66h-10zm176 0v-33h7v66h-7zM237 298v-5h66v10h-66zm-59-88v-33h9v66h-9zm175 0v-33h7v66h-7zm-116-86.5V120h66v7h-66z" fill="#516727"/><path d="M184 628v-28h56v56h-56zm116 0v-28h56v56h-56zM184 512v-28h172v56H184zm-4-210.5V300h-2v-63 3h3v60h3v3h-4zm4-33.5v-28h56v56h-56zm116 0v-28h56v56h-56zM178 151.5V120h3v58.5l-.6 1.5H178zm6 .5v-28h56v56h-56zm116 0v-28h56v56h-56z" fill="#2d802d" filter="url(#stroke-path)"/><path d="M840 297v3h-60v60h-60v63h60v-3h60v120h60V417h-57V297h-3zm0 363v120h-60v120h120V660h-60zM300 780v120h120V780H300z" fill="#0d3112"/><path d="M240 631v-31h-59 6v-60h-6 62-3v60h60v-60h-3 62-6v60h7-60v59-6h-60v6zm0-360v-31h-62v-60h62v-59 3h60v-3 59h59-6v60h6-59v59-6h-60v6zm-53-61v-30h-9v60h9zm113 0v-30h-60v60h60z" fill="#3aa63a"/><path d="M840 240v180h60V240z" fill="#0d3112"/><path d="M544 0v176h56v4h-3v4h3v-3h4v55h232V0h-59v177H603V0z" fill="#266c26"/><path d="M180 661.5V660h-3v-60h10v53h53v7h3v3h-63zm117 0V660h3v-7h53v-53h7v63h-63zm-120-150V480h183v60h-7v-53H187v53h-10zm3-210V300h-2v-60h9v53h53v10h-60zm120 0V293h53v-53h7v63h-60zm-122-150V120h62v7h-53v53h-9zm175 2V127h-53v-7h60v60h-7z" fill="#335120"/><path d="M300 780v120h4V784h116v-4H304z" fill="#fff" fill-opacity=".039"/><path d="M0 120v60h120v-60H0z" fill="#004324"/><path d="M0 298.57V780h60v-60h60V298.57H0z" fill="#004a28"/><path d="M0 420h60v60H0z" fill="#0d3112"/><path d="M0 0h60v60H0z" fill="#205b79"/><path d="M660 60v60h60V60z" fill="#51d14d"/><path d="M657 151.5V123h-54V57h54V0h66v57h54v120H657zM770 120V67h-50v-7h-8V7h-45v53h-7v7h-50v46h50v7h7v50h103z" fill="#358b40"/><path d="M540 423v57h-60v240h240v-60h57V480h-57v-57H540zm8 8h164v52h5v5h52v164h-56v4h-1v56H488V488h55v-5h5v-52z" fill="#2a772a"/><g fill="#3aa63a"><path d="M610 90V64h50v52h-50zM664 148v-28h56V64h50v106H664zM664 32V4h51v56h-51zM543 483h174v174H543z"/></g><path d="M600 213v-30h-63V0h10v173h56v5h4v55h226V0h7v240H600z" fill="#2a772a" filter="url(#stroke-path)"/><path d="M244 544v52h52v-52zM600 483v57h-57v60h57v57h60v-57h57v-60h-57v-57h-60z" fill="#51d14d"/></svg>
